<?xml version="1.0" encoding="UTF-8" standalone="no"?>
<!-- Created with Inkscape (http://www.inkscape.org/) -->

<svg
   xmlns:dc="http://purl.org/dc/elements/1.1/"
   xmlns:cc="http://creativecommons.org/ns#"
   xmlns:rdf="http://www.w3.org/1999/02/22-rdf-syntax-ns#"
   xmlns:svg="http://www.w3.org/2000/svg"
   xmlns="http://www.w3.org/2000/svg"
   xmlns:sodipodi="http://sodipodi.sourceforge.net/DTD/sodipodi-0.dtd"
   xmlns:inkscape="http://www.inkscape.org/namespaces/inkscape"
   id="svg2"
   version="1.1"
   inkscape:version="0.91 r13725"
   xml:space="preserve"
   width="142.48038"
   height="76.195755"
   viewBox="0 0 142.48038 76.195755"
   sodipodi:docname="logo.svg"><metadata
     id="metadata8"><rdf:RDF><cc:Work
         rdf:about=""><dc:format>image/svg+xml</dc:format><dc:type
           rdf:resource="http://purl.org/dc/dcmitype/StillImage" /><dc:title></dc:title></cc:Work></rdf:RDF></metadata><defs
     id="defs6" /><sodipodi:namedview
     pagecolor="#ffffff"
     bordercolor="#666666"
     borderopacity="1"
     objecttolerance="10"
     gridtolerance="10"
     guidetolerance="10"
     inkscape:pageopacity="0"
     inkscape:pageshadow="2"
     inkscape:window-width="1361"
     inkscape:window-height="897"
     id="namedview4"
     showgrid="false"
     inkscape:zoom="1.7811321"
     inkscape:cx="20.492585"
     inkscape:cy="-14.433262"
     inkscape:window-x="183"
     inkscape:window-y="54"
     inkscape:window-maximized="0"
     inkscape:current-layer="g12"
     fit-margin-top="0"
     fit-margin-left="0"
     fit-margin-right="0"
     fit-margin-bottom="0" /><g
     id="g10"
     inkscape:groupmode="layer"
     inkscape:label="ink_ext_XXXXXX"
     transform="matrix(1.25,0,0,-1.25,0,125.3377)"><g
       id="g12"
       transform="scale(0.1,0.1)"><path
         d="m 314.273,593.13559 15,0 0,-200 -35,0 0,200 20,0"
         style="fill:#ffcc00;fill-opacity:1;fill-rule:nonzero;stroke:none"
         id="path16"
         inkscape:connector-curvature="0" /><path
         d="m 314.273,794.13559 15,0 0,-201 -35,0 0,201 20,0"
         style="fill:#ff0000;fill-opacity:1;fill-rule:nonzero;stroke:none"
         id="path18"
         inkscape:connector-curvature="0" /><path
         d="m 203.195,923.22559 c 10.234,-16.195 18.25,-15.918 30.351,-15.918 -10.015,7.676 -16.636,17.5 -19.793,22.516 l -18.699,29.921 c -1.828,9.246 -6.605,17.883 -13.761,24.309 2.406,0.914 4.406,1.871 5.613,2.781 -12.211,0 -24.313,6.203 -30.973,6.203 -4.281,0 -7.035,-2.558 -7.035,-5.941 0.277,-3.766 4.152,-7.606 11.32,-7.606 1.629,0 3.703,0.215 5.985,0.594 3.883,-5.41 7.011,-10.301 7.011,-17.277 0,-13.102 -15.664,-23.309 -31.476,-23.309 -0.895,0 -1.742,0.032 -2.637,0.102 -1.433,3.242 -6.195,8.703 -6.195,14.898 0,10.41 6.789,18.91 6.789,29.223 0,6.406 -3.125,10.371 -4.328,12.019 1.941,1.805 4.066,4.02 4.558,5.53601 -1.125,-0.485 -2.461,-0.551 -4.418,-0.551 -7.578,0 -13.754,1.976 -19.781,1.976 -3.43,0 -4.359,-1.066 -4.359,-2.078 0,-0.363 0.058,-0.74601 0.156,-0.92901 -1.281,0.50701 -2.484,0.82801 -3.914,1.09701 -1.773,0.336 -3.691,0.508 -5.731,0.508 -7.316,0 -9.917,-3.07001 -9.917,-5.69901 0,-2.227 1.75,-6.289 3.738,-9.379 2.855,1.43 6.277,2.406 7.847,2.406 3.879,0 7.336,-3.699 9.168,-8.086 -2.613,-0.312 -3.113,-0.429 -5.753,-0.429 -7.125,0 -11.973,2.554 -12.977,2.554 -0.098,0 -0.285,-0.051 -0.285,-0.207 0,-1 2.019,-3.64 6.004,-5.094 5.246,-1.921 13.109,-2.722 14.418,-2.937 0,-0.23 -1.332,-2.715 -2.817,-3.188 -0.316,-0.101 -0.562,-0.113 -0.926,-0.039 -5.484,1.082 -7.011,1.543 -13.964,4.192 -0.215,0.078 -0.34,-0.055 -0.34,-0.281 0,-2.747 7.121,-8.817 13.496,-11.141 -5.324,-6.805 -11.981,-13.762 -15.117,-24.371 -0.887,-0.07 -1.746,-0.102 -2.641,-0.102 -15.809,0 -31.476,10.207 -31.476,23.309 0,6.976 3.136,11.867 7.019,17.277 2.277,-0.379 4.352,-0.594 5.977,-0.594 7.168,0 11.046,3.84 11.332,7.606 0,3.383 -2.754,5.941 -7.047,5.941 -6.66,0 -18.75,-6.203 -30.973,-6.203 1.207,-0.91 3.211,-1.867 5.613,-2.781 -7.156,-6.426 -11.933,-15.063 -13.761,-24.309 L 19.8,929.82359 c -3.148,-5.016 -9.789,-14.84 -19.8,-22.516 12.101,0 20.125,-0.277 30.363,15.918 l 9.586,15.34 c 0.711,-1.992 1.586,-3.93 2.609,-5.828 l -19.066,-30.508 c -3.172,-5.063 -9.746,-14.809 -19.801,-22.524 12.102,0 20.121,-0.281 30.355,15.903 l 16.418,26.277 c 1.227,-1.309 2.52,-2.59 3.883,-3.809 l -23.164,-37.082 c -3.183,-5.066 -9.722,-14.785 -19.797,-22.5 12.102,0 20.121,-0.293 30.36,15.903 l 22.578,36.148 c 1.488,-0.933 3.012,-1.851 4.582,-2.715 l -27.563,-44.097 c -3.179,-5.078 -9.722,-14.77 -19.789,-22.5 12.098,0 20.121,-0.285 30.356,15.894 l 28.379,45.434 c 1.679,-0.649 3.382,-1.262 5.117,-1.821 l -32.07,-51.328 c -3.133,-5 -9.825,-14.859 -19.786,-22.5 12.094,0 20.118,-0.269 30.352,15.903 l 34.18,54.707 c 0.347,-0.063 0.695,-0.117 1.031,-0.188 0.93,-2.961 1.582,-5.715 1.582,-8.469 0,-17.183 -11.281,-32.371 -24.82,-44.089 0.863,-0.379 2.375,-0.508 3.769,-0.508 2.793,0 4.602,0.144 5.863,0.371 -3.136,-7.129 -9.871,-16.336 -13.273,-21.106 -4.438,0.801 -10.883,1.426 -15.106,1.426 -4.417,0 -4.917,-2.586 -4.917,-4.89 0,-4.012 1.875,-7.207 4.066,-8.985 0.812,2.051 2.465,4.793 10.629,4.793 0.156,0 0.437,-0.015 0.82,-0.047 -2.39,-2.656 -9.859,-8.691 -9.859,-13.554 0,-3.223 3.535,-8.047 8.187,-8.047 -0.277,1.035 -0.238,1.992 -0.238,2.707 0,3.941 3.484,8.554 6.437,11.765 -0.089,-0.957 -0.046,-0.859 -0.046,-1.972 0,-9.317 0.843,-13.594 6.754,-13.594 2.902,0 4.902,1.594 5.589,2.07 -3.839,3.535 -4.039,6.309 -4.039,11.535 0.012,1.356 0.016,2.684 0.035,4.52 0.016,1.191 -0.003,2.773 -0.199,3.918 2.117,0.293 2.973,0.293 4.602,0.293 0,0 8.394,0.66 10.418,-3.703 2.281,2.09 5.59,5.039 5.59,8.293 0,2.144 -1.02,4.578 -5.344,4.578 -1.637,0 -6.789,-1.008 -11.102,-1.008 1.157,2.578 6.317,10.117 10.782,15.59 0.675,-2.121 1.73,-4.414 4.074,-6.289 0.32,3.516 2.386,14.644 7.886,21.148 0.637,-4.39 1.5,-8.902 1.5,-18.418 0,-23.132 -5.558,-40.222 -17.371,-43.484 1.539,-2.676 4.786,-5.078 8.161,-5.078 4.316,0 6.671,4.883 9.07,9.492 1.25,-3.398 4.703,-11.738 8.16,-11.738 3.457,0 6.914,8.34 8.164,11.738 2.399,-4.609 4.75,-9.492 9.07,-9.492 3.375,0 6.629,2.402 8.164,5.078 -11.808,3.262 -17.375,20.352 -17.375,43.484 0,9.516 0.86,14.028 1.497,18.418 5.503,-6.504 7.574,-17.632 7.89,-21.148 2.348,1.875 3.406,4.168 4.078,6.289 4.465,-5.473 9.621,-13.012 10.782,-15.59 -4.317,0 -9.465,1.008 -11.102,1.008 -4.32,0 -5.344,-2.434 -5.344,-4.578 0,-3.254 3.313,-6.203 5.59,-8.293 2.02,4.363 10.422,3.703 10.422,3.703 1.625,0 2.48,0 4.602,-0.293 -0.2,-1.145 -0.211,-2.727 -0.204,-3.918 0.02,-1.836 0.028,-3.164 0.032,-4.52 0,-5.226 -0.196,-8 -4.036,-11.535 0.692,-0.476 2.692,-2.07 5.586,-2.07 5.914,0 6.758,4.277 6.758,13.594 0,1.113 0.035,1.015 -0.043,1.972 2.946,-3.211 6.438,-7.824 6.438,-11.765 0,-0.715 0.039,-1.672 -0.246,-2.707 4.66,0 8.195,4.824 8.195,8.047 0,4.863 -7.473,10.898 -9.863,13.554 0.386,0.032 0.664,0.047 0.816,0.047 8.172,0 9.817,-2.742 10.637,-4.793 2.183,1.778 4.058,4.973 4.058,8.985 0,2.304 -0.496,4.89 -4.914,4.89 -4.222,0 -10.668,-0.625 -15.105,-1.426 -3.402,4.77 -10.133,13.977 -13.277,21.106 1.265,-0.227 3.078,-0.371 5.863,-0.371 1.402,0 2.906,0.129 3.773,0.508 -13.539,11.718 -24.82,26.906 -24.82,44.089 0,2.754 0.652,5.508 1.578,8.469 0.34,0.071 0.691,0.125 1.035,0.188 l 34.176,-54.707 c 10.234,-16.172 18.262,-15.903 30.352,-15.903 -9.961,7.641 -16.649,17.5 -19.774,22.5 l -32.082,51.328 c 1.738,0.559 3.442,1.172 5.121,1.821 l 28.379,-45.434 c 10.234,-16.179 18.254,-15.894 30.359,-15.894 -10.074,7.73 -16.613,17.422 -19.792,22.5 l -27.563,44.097 c 1.566,0.864 3.098,1.782 4.574,2.715 l 22.59,-36.148 c 10.238,-16.196 18.254,-15.903 30.348,-15.903 -10.067,7.715 -16.602,17.434 -19.789,22.5 l -23.16,37.082 c 1.363,1.219 2.66,2.5 3.875,3.809 l 16.421,-26.277 c 10.235,-16.184 18.25,-15.903 30.356,-15.903 -10.063,7.715 -16.621,17.461 -19.797,22.524 l -19.07,30.508 c 1.027,1.898 1.898,3.836 2.613,5.828 l 9.586,-15.34 z m -153.063,35.129 c 0,11.398 8.286,20.418 11.207,22.957 0.704,-0.172 1.403,-0.34 2.098,-0.485 -3.101,-3.785 -8.574,-10.128 -8.574,-18.531 0,-16.676 17.824,-31.164 38,-31.164 -0.129,-1.426 -0.199,-2.93 -0.199,-4.473 0,-2.46 0.132,-4.753 0.379,-6.914 -22.817,0.137 -42.911,18.661 -42.911,38.61 z m 30.918,-136.735 -0.129,-0.386 0.399,0 c 6.406,0 9.523,0.457 11.59,0.757 1.086,0.137 1.859,0.254 2.703,0.254 1.652,0 2.922,-0.156 2.922,-2.183 0,-1.379 -1.606,-3.547 -3.157,-4.809 -2.367,2.231 -5.632,2.668 -10.429,2.668 -2.246,0 -5.184,-0.398 -6.762,-0.625 l -0.246,-0.027 -0.277,-0.039 0.089,-0.754 c 0.188,-1.328 0.415,-2.981 0.415,-5.203 l -0.028,-2.024 -0.023,-2.508 c 0,-5.441 0.746,-8.546 2.648,-10.89 -0.492,-0.188 -1.289,-0.332 -1.804,-0.332 -3.375,0 -4.356,1.472 -4.356,11.211 0,1.953 -0.105,3.789 -0.176,5.011 l -0.093,1.805 -0.43,-0.332 c -5.02,-3.828 -10.192,-10.664 -10.5,-15.781 -1.516,0.976 -3.153,3.164 -3.153,4.844 0,2.793 4.196,6.98 9.055,11.836 l 2.797,2.793 0.352,0.363 -0.918,0.222 c -1.043,0.274 -2.985,0.762 -4.633,0.762 -5.453,0 -8.86,-1.023 -10.969,-3.32 -0.75,1.094 -1.387,3.641 -1.387,5.137 0,0.964 0.192,1.652 0.578,2.043 0.477,0.457 1.215,0.457 1.864,0.457 l 0.136,0 c 6,0 13.18,-1.082 15.985,-1.536 l 0.164,-0.039 0.105,0.137 c 0.485,0.656 11.93,15.899 14.907,23.984 0.679,0.254 1.277,0.454 2.468,0.454 2.254,0 2.879,-1.528 3.532,-3.848 -7.161,-8.691 -11.614,-15.449 -13.239,-20.102 z m 61.743,23.95 c 1.199,0 1.785,-0.2 2.476,-0.454 2.973,-8.085 14.418,-23.328 14.899,-23.984 l 0.105,-0.137 0.172,0.039 c 2.805,0.454 9.976,1.536 15.98,1.536 l 0.133,0 c 0.653,0 1.391,0 1.863,-0.457 0.387,-0.391 0.582,-1.079 0.582,-2.043 0,-1.496 -0.632,-4.043 -1.39,-5.137 -2.106,2.297 -5.512,3.32 -10.969,3.32 -1.644,0 -3.582,-0.488 -4.633,-0.762 l -0.429,-0.097 -0.493,-0.125 3.157,-3.156 c 4.855,-4.856 9.058,-9.043 9.058,-11.836 0,-1.68 -1.636,-3.868 -3.148,-4.844 -0.32,5.117 -5.488,11.953 -10.512,15.781 l -0.43,0.32 -0.082,-1.793 c -0.074,-1.222 -0.179,-3.058 -0.179,-5.011 0,-9.739 -0.989,-11.211 -4.364,-11.211 -0.515,0 -1.308,0.144 -1.8,0.332 1.898,2.344 2.652,5.449 2.652,10.89 l -0.031,2.508 -0.024,2.024 c 0,2.222 0.231,3.875 0.41,5.203 l 0.098,0.754 -0.531,0.066 c -1.578,0.227 -4.512,0.625 -6.754,0.625 -4.805,0 -8.066,-0.437 -10.43,-2.668 -1.558,1.262 -3.16,3.43 -3.16,4.809 0,2.027 1.266,2.183 2.922,2.183 0.84,0 1.621,-0.117 2.703,-0.254 2.067,-0.3 5.184,-0.757 11.59,-0.757 l 0.394,0 -0.125,0.386 c -1.625,4.653 -6.082,11.411 -13.234,20.102 0.645,2.32 1.274,3.848 3.524,3.848 z m -26.504,133 c -0.711,2.961 -2.227,6.004 -4.161,8.293 -1.757,2.074 -4.667,4.539 -8.582,4.539 -1.793,0 -4.793,-0.832 -6.699,-1.641 -0.719,1.297 -2.109,4.43 -2.109,5.84 0,1.453 2.457,2.922 7.14,2.922 10.321,0 16.489,-4.668 16.489,-12.489 0,-2.742 -1.09,-5.246 -2.078,-7.464 z m 4.632,10.171 c -0.371,2.208 -1.21,4.208 -2.488,5.922 0.063,2.024 0.895,3.953 4.145,2.364 -1.758,-1.801 -0.399,-4.985 -0.399,-4.985 0,0 3.598,1.668 2.856,4.043 5.336,-1.277 1.5,-8.445 -4.114,-7.344 z m 20.082,-68.996 c 0.274,2.239 0.426,4.551 0.426,6.914 0,1.29 0.012,2.786 -0.144,4.485 19.926,0.285 37.406,14.637 37.406,31.152 0,8.403 -5.477,14.746 -8.574,18.531 0.699,0.145 1.398,0.313 2.101,0.485 2.918,-2.539 11.203,-11.559 11.203,-22.957 0,-19.809 -19.8,-38.199 -42.418,-38.61"
         style="fill:#000000;fill-opacity:1;fill-rule:nonzero;stroke:none"
         id="path20"
         inkscape:connector-curvature="0" /><path
         d="m 329.273,993.13159 0,-199.996 -35,0 0,199.996 35,0"
         style="fill:#000000;fill-opacity:1;fill-rule:nonzero;stroke:none"
         id="path22"
         inkscape:connector-curvature="0" /><path
         d="m 450.886,955.28359 c 0,-8.585 -0.3,-14.953 -0.902,-19.097 -1.133,-7.832 -3.469,-13.446 -7.008,-16.836 -4.293,-4.145 -10.848,-6.215 -19.66,-6.215 l -20.004,0 0,81.699 20.004,0 c 8.059,0 14.199,-1.582 18.418,-4.746 3.766,-2.785 6.289,-6.894 7.57,-12.316 1.055,-4.52 1.582,-12.016 1.582,-22.489 z m -10.058,-0.902 c 0,7.531 -0.188,12.844 -0.563,15.934 -0.906,7.078 -2.937,11.75 -6.101,14.011 -2.563,1.957 -6.328,2.938 -11.301,2.938 l -9.945,0 0,-66.445 11.187,0 c 4.066,0 7.344,0.941 9.832,2.824 3.164,2.336 5.234,7.082 6.215,14.238 0.449,3.391 0.676,8.891 0.676,16.5"
         style="fill:#000000;fill-opacity:1;fill-rule:nonzero;stroke:none"
         id="path24"
         inkscape:connector-curvature="0" /><path
         d="m 503.429,940.36959 -29.832,0 0,-3.843 c 0,-5.801 0.528,-9.981 1.582,-12.543 1.508,-3.692 4.446,-5.535 8.817,-5.535 6.554,0 9.98,4.179 10.281,12.542 l 8.816,0 c -0.527,-12.656 -6.894,-18.984 -19.097,-18.984 -7.91,0 -13.336,2.672 -16.274,8.024 -2.183,3.992 -3.277,10.433 -3.277,19.32 0,10.098 0.941,17.328 2.824,21.695 2.942,6.856 8.742,10.285 17.402,10.285 8.137,0 13.563,-3.011 16.274,-9.039 1.656,-3.769 2.484,-10.211 2.484,-19.324 l 0,-2.598 z m -9.039,6.102 c 0,5.5 -0.375,9.379 -1.129,11.637 -1.355,4.519 -4.258,6.781 -8.703,6.781 -6.176,0 -9.68,-3.691 -10.508,-11.074 -0.3,-2.563 -0.453,-5.008 -0.453,-7.344 l 20.793,0"
         style="fill:#000000;fill-opacity:1;fill-rule:nonzero;stroke:none"
         id="path26"
         inkscape:connector-curvature="0" /><path
         d="m 541.398,962.62759 c -0.902,0.153 -1.543,0.227 -1.922,0.227 -4.293,0 -7.512,-1.317 -9.66,-3.953 -2.145,-2.637 -3.219,-6.141 -3.219,-10.508 l 0,-35.258 -9.043,0 0,46.555 c 0,3.843 -0.109,7.308 -0.336,10.398 l 8.813,0 0,-7.461 c 3.09,5.727 7.91,8.59 14.465,8.59 0.601,0 0.902,-2.863 0.902,-8.59"
         style="fill:#000000;fill-opacity:1;fill-rule:nonzero;stroke:none"
         id="path28"
         inkscape:connector-curvature="0" /><path
         d="m 447.722,815.51059 c 0,-8.289 -2.07,-14.164 -6.215,-17.629 -3.765,-3.164 -9.832,-4.746 -18.191,-4.746 l -20.004,0 0,81.699 21.695,0 c 7.309,0 12.676,-1.582 16.106,-4.746 3.426,-3.164 5.14,-8.398 5.14,-15.707 0,-5.125 -0.867,-9.039 -2.597,-11.754 -1.809,-3.086 -5.012,-5.347 -9.606,-6.777 5.274,-1.281 8.926,-3.656 10.961,-7.121 1.809,-3.012 2.711,-7.418 2.711,-13.219 z m -11.074,38.305 c 0,5.047 -1.242,8.59 -3.73,10.625 -2.184,1.804 -5.723,2.711 -10.622,2.711 l -9.492,0 0,-27.911 10.059,0 c 9.191,0 13.785,4.86 13.785,14.575 z m 1.242,-37.856 c 0,5.352 -1.148,9.324 -3.445,11.922 -2.297,2.602 -6.082,3.899 -11.356,3.899 l -10.285,0 0,-30.961 8.703,0 c 5.723,0 9.793,0.941 12.204,2.824 2.785,2.187 4.179,6.293 4.179,12.316"
         style="fill:#000000;fill-opacity:1;fill-rule:nonzero;stroke:none"
         id="path30"
         inkscape:connector-curvature="0" /><path
         d="m 501.285,793.13559 -8.926,0 -0.113,7.23 c -3.465,-5.421 -8.25,-8.132 -14.352,-8.132 -10.172,0 -15.258,5.836 -15.258,17.511 l 0,40.344 8.93,0 0,-36.387 c 0,-4.671 0.375,-7.984 1.129,-9.945 1.281,-3.238 3.918,-4.859 7.91,-4.859 7.457,0 11.188,5.539 11.188,16.613 l 0,34.578 9.039,0 0,-44.41 c 0,-4.445 0.152,-8.625 0.453,-12.543"
         style="fill:#000000;fill-opacity:1;fill-rule:nonzero;stroke:none"
         id="path32"
         inkscape:connector-curvature="0" /><path
         d="m 555.863,793.13559 -8.926,0 0,36.387 c 0,4.894 -0.34,8.25 -1.019,10.054 -1.282,3.317 -3.879,4.973 -7.797,4.973 -3.84,0 -6.817,-1.883 -8.926,-5.648 -1.734,-3.239 -2.598,-7.082 -2.598,-11.528 l 0,-34.238 -8.929,0 0,44.523 c 0,5.047 -0.149,9.192 -0.45,12.43 l 8.813,0 0,-7.797 c 3.164,6.028 8.097,9.039 14.805,9.039 10.015,0 15.027,-5.914 15.027,-17.742 l 0,-40.453"
         style="fill:#000000;fill-opacity:1;fill-rule:nonzero;stroke:none"
         id="path34"
         inkscape:connector-curvature="0" /><path
         d="m 610.214,793.13559 -8.699,0 -0.113,6.555 c -3.238,-4.973 -7.684,-7.457 -13.332,-7.457 -7.309,0 -12.32,3.273 -15.031,9.828 -1.735,4.371 -2.598,11.148 -2.598,20.34 0,8.664 1.016,15.218 3.051,19.664 2.711,6.175 7.496,9.265 14.351,9.265 5.723,0 10.02,-2.222 12.879,-6.668 l 0,30.172 9.043,0 0,-70.965 c 0,-2.035 0.149,-5.613 0.449,-10.734 z m -9.152,27.91 c 0,7.762 -0.562,13.297 -1.695,16.613 -1.582,4.747 -4.633,7.118 -9.153,7.118 -4.445,0 -7.457,-2.485 -9.039,-7.457 -1.054,-3.239 -1.582,-8.289 -1.582,-15.141 0,-7.461 0.602,-12.922 1.809,-16.387 1.582,-4.672 4.406,-7.008 8.473,-7.008 4.824,0 8.023,2.375 9.605,7.122 1.055,3.089 1.582,8.136 1.582,15.14"
         style="fill:#000000;fill-opacity:1;fill-rule:nonzero;stroke:none"
         id="path36"
         inkscape:connector-curvature="0" /><path
         d="m 663.328,820.36959 -29.832,0 0,-3.843 c 0,-5.801 0.523,-9.981 1.582,-12.543 1.504,-3.692 4.445,-5.535 8.812,-5.535 6.555,0 9.981,4.179 10.281,12.542 l 8.817,0 c -0.527,-12.656 -6.895,-18.984 -19.098,-18.984 -7.91,0 -13.336,2.672 -16.273,8.024 -2.184,3.992 -3.278,10.433 -3.278,19.32 0,10.098 0.946,17.328 2.829,21.695 2.937,6.856 8.738,10.285 17.402,10.285 8.133,0 13.558,-3.011 16.269,-9.039 1.657,-3.769 2.489,-10.211 2.489,-19.324 l 0,-2.598 z m -9.043,6.102 c 0,5.5 -0.375,9.379 -1.129,11.637 -1.356,4.519 -4.254,6.781 -8.699,6.781 -6.18,0 -9.68,-3.691 -10.512,-11.074 -0.301,-2.563 -0.449,-5.008 -0.449,-7.344 l 20.789,0"
         style="fill:#000000;fill-opacity:1;fill-rule:nonzero;stroke:none"
         id="path38"
         inkscape:connector-curvature="0" /><path
         d="m 709.089,808.72959 c 0,-11.074 -5.949,-16.61 -17.851,-16.61 -11.68,0 -17.402,6.137 -17.176,18.418 l 8.926,0 c 0,-1.129 0.039,-2.183 0.113,-3.164 0.527,-5.953 3.317,-8.925 8.363,-8.925 5.723,0 8.586,2.937 8.586,8.812 0,3.164 -0.902,5.648 -2.711,7.457 -1.128,1.207 -3.656,2.863 -7.57,4.973 -5.351,2.863 -8.738,4.972 -10.172,6.328 -2.863,2.637 -4.293,6.14 -4.293,10.508 0,4.898 1.621,8.629 4.86,11.187 3.011,2.41 7.043,3.617 12.089,3.617 5.875,0 10.059,-1.375 12.543,-4.125 2.489,-2.75 3.805,-6.988 3.957,-12.711 l -8.929,0 c 0,7.079 -2.672,10.621 -8.024,10.621 -2.332,0 -4.179,-0.714 -5.535,-2.148 -1.355,-1.43 -2.035,-3.312 -2.035,-5.648 0,-2.563 1.094,-4.746 3.277,-6.555 1.129,-1.055 3.805,-2.711 8.024,-4.973 4.594,-2.484 7.758,-4.593 9.492,-6.328 2.711,-2.863 4.066,-6.441 4.066,-10.734"
         style="fill:#000000;fill-opacity:1;fill-rule:nonzero;stroke:none"
         id="path40"
         inkscape:connector-curvature="0" /><path
         d="m 787.511,850.08859 -14.234,-56.953 -10.738,0 -11.075,47.121 -10.847,-47.121 -10.735,0 -14.351,56.953 9.605,0 10.508,-48.476 11.074,48.476 10.399,0 11.301,-48.476 10.394,48.476 8.699,0"
         style="fill:#000000;fill-opacity:1;fill-rule:nonzero;stroke:none"
         id="path42"
         inkscape:connector-curvature="0" /><path
         d="m 832.601,793.13559 -8.703,0 -0.113,7.457 c -3.84,-5.574 -8.926,-8.359 -15.254,-8.359 -4.82,0 -8.551,1.582 -11.188,4.746 -2.336,3.011 -3.504,7.004 -3.504,11.976 0,8.063 3.09,13.485 9.27,16.274 4.066,1.883 10.769,2.859 20.113,2.937 l 0,2.485 c 0,4.672 -0.379,7.91 -1.133,9.718 -1.203,3.012 -3.765,4.52 -7.683,4.52 -2.711,0 -4.973,-0.754 -6.778,-2.262 -1.808,-1.504 -2.714,-3.613 -2.714,-6.328 l 0,-0.562 -8.926,0 0,0.562 c 0,5.199 1.883,9.078 5.648,11.641 3.242,2.261 7.61,3.39 13.11,3.39 6.554,0 11.113,-1.582 13.672,-4.746 2.414,-2.863 3.617,-7.609 3.617,-14.238 l 0,-21.02 c 0,-6.851 0.187,-12.918 0.566,-18.191 z m -9.379,22.035 0,6.781 -2.261,0 c -11.903,0 -17.852,-4.07 -17.852,-12.207 0,-7.304 2.785,-10.961 8.359,-10.961 4.219,0 7.348,1.809 9.379,5.426 1.582,2.864 2.375,6.516 2.375,10.961"
         style="fill:#000000;fill-opacity:1;fill-rule:nonzero;stroke:none"
         id="path44"
         inkscape:connector-curvature="0" /><path
         d="m 886.843,793.13559 -8.93,0 0,36.387 c 0,4.82 -0.34,8.172 -1.01,10.054 -1.29,3.317 -3.89,4.973 -7.81,4.973 -7.68,0 -11.52,-5.609 -11.52,-16.836 l 0,-34.578 -8.92,0 0,81.699 8.92,0 0,-31.301 c 3.69,5.2 8.47,7.797 14.35,7.797 9.94,0 14.92,-5.953 14.92,-17.855 l 0,-40.34"
         style="fill:#000000;fill-opacity:1;fill-rule:nonzero;stroke:none"
         id="path46"
         inkscape:connector-curvature="0" /><path
         d="m 912.603,793.13559 -8.93,0 0,81.699 8.93,0 0,-81.699"
         style="fill:#000000;fill-opacity:1;fill-rule:nonzero;stroke:none"
         id="path48"
         inkscape:connector-curvature="0" /><path
         d="m 938.363,793.13559 -8.92,0 0,81.699 8.92,0 0,-81.699"
         style="fill:#000000;fill-opacity:1;fill-rule:nonzero;stroke:none"
         id="path50"
         inkscape:connector-curvature="0" /><path
         d="m 991.933,820.36959 -29.84,0 0,-3.843 c 0,-5.801 0.53,-9.981 1.59,-12.543 1.5,-3.692 4.44,-5.535 8.81,-5.535 6.55,0 9.98,4.179 10.28,12.542 l 8.82,0 c -0.53,-12.656 -6.89,-18.984 -19.1,-18.984 -7.91,0 -13.33,2.672 -16.27,8.024 -2.18,3.992 -3.28,10.433 -3.28,19.32 0,10.098 0.94,17.328 2.83,21.695 2.93,6.856 8.73,10.285 17.4,10.285 8.14,0 13.56,-3.011 16.27,-9.039 1.66,-3.769 2.49,-10.211 2.49,-19.324 l 0,-2.598 z m -9.04,6.102 c 0,5.5 -0.38,9.379 -1.13,11.637 -1.36,4.519 -4.26,6.781 -8.7,6.781 -6.18,0 -9.68,-3.691 -10.51,-11.074 -0.3,-2.563 -0.46,-5.008 -0.46,-7.344 l 20.8,0"
         style="fill:#000000;fill-opacity:1;fill-rule:nonzero;stroke:none"
         id="path52"
         inkscape:connector-curvature="0" /><path
         d="m 1015.543,863.98759 -9.83,0 0,9.718 9.83,0 0,-9.718 z m -0.45,-70.852 -8.93,0 0,56.953 8.93,0 0,-56.953"
         style="fill:#000000;fill-opacity:1;fill-rule:nonzero;stroke:none"
         id="path54"
         inkscape:connector-curvature="0" /><path
         d="m 1053.973,793.13559 c -2.79,-0.301 -4.98,-0.453 -6.56,-0.453 -5.12,0 -8.62,1.094 -10.51,3.277 -1.58,1.961 -2.37,5.539 -2.37,10.735 l 0,36.839 -8.48,0 0,6.555 8.48,0 0,10.508 8.92,3.957 0,-14.465 10.18,0 0,-6.555 -10.18,0 0,-35.82 c 0,-3.164 0.46,-5.293 1.36,-6.387 0.91,-1.089 2.6,-1.636 5.09,-1.636 0.45,0 1.8,0.148 4.07,0.453 l 0,-7.008"
         style="fill:#000000;fill-opacity:1;fill-rule:nonzero;stroke:none"
         id="path56"
         inkscape:connector-curvature="0" /><path
         d="m 1101.883,820.36959 -29.84,0 0,-3.843 c 0,-5.801 0.53,-9.981 1.59,-12.543 1.5,-3.692 4.44,-5.535 8.81,-5.535 6.55,0 9.98,4.179 10.28,12.542 l 8.82,0 c -0.53,-12.656 -6.89,-18.984 -19.1,-18.984 -7.91,0 -13.33,2.672 -16.27,8.024 -2.19,3.992 -3.28,10.433 -3.28,19.32 0,10.098 0.94,17.328 2.83,21.695 2.93,6.856 8.73,10.285 17.4,10.285 8.13,0 13.56,-3.011 16.27,-9.039 1.66,-3.769 2.49,-10.211 2.49,-19.324 l 0,-2.598 z m -9.04,6.102 c 0,5.5 -0.38,9.379 -1.13,11.637 -1.36,4.519 -4.26,6.781 -8.71,6.781 -6.17,0 -9.68,-3.691 -10.5,-11.074 -0.3,-2.563 -0.46,-5.008 -0.46,-7.344 l 20.8,0"
         style="fill:#000000;fill-opacity:1;fill-rule:nonzero;stroke:none"
         id="path58"
         inkscape:connector-curvature="0" /><path
         d="m 1139.843,842.62759 c -0.9,0.153 -1.54,0.227 -1.92,0.227 -4.29,0 -7.51,-1.317 -9.66,-3.953 -2.15,-2.637 -3.22,-6.141 -3.22,-10.508 l 0,-35.258 -9.04,0 0,46.555 c 0,3.843 -0.11,7.308 -0.34,10.398 l 8.82,0 0,-7.461 c 3.09,5.727 7.91,8.59 14.46,8.59 0.6,0 0.9,-2.863 0.9,-8.59"
         style="fill:#000000;fill-opacity:1;fill-rule:nonzero;stroke:none"
         id="path60"
         inkscape:connector-curvature="0" /></g></g></svg>