<svg width="627" height="694" viewBox="0 0 627 694" fill="none" xmlns="http://www.w3.org/2000/svg">
<path d="M367.048 4.14546C429.587 -26.5284 529.124 123.719 627 104.468C617.134 178.332 603.903 223.747 580.878 276.905C525.673 317.452 367.048 162.636 306.502 207.084L367.048 4.14546Z" fill="#E73845"/>
<path d="M327.591 136.416L306.502 207.116C367.047 162.689 525.673 317.467 580.878 276.92C587.976 260.533 594.143 244.873 599.569 228.896L599.952 227.749C521.577 251.531 422.001 116.411 327.591 136.416Z" fill="#F6BA12"/>
<path d="M370.829 2.52607C369.513 3.01628 368.252 3.55455 367.051 4.14472C367.049 4.14472 367.049 4.14472 367.049 4.14472L348.25 67.1495C449.927 51.7376 537.226 185.904 616.376 167.391C620.394 148.513 623.866 127.926 627 104.469C531.072 123.337 433.552 -20.6081 370.829 2.52607Z" fill="#343434"/>
<path d="M253 366.612L261.237 369L367.048 4.14525L358.715 1.65765L253 366.612Z" fill="#5E5E5D"/>
<path d="M39.2904 248.157H19.4971V240.805H39.2904V248.157Z" fill="#B28E60"/>
<path d="M7.16961 506.231C8.38827 494.707 15.8816 486.052 23.9056 486.9C28.2149 487.356 31.7989 490.462 34.0069 495.023C36.1176 497.088 38.1789 499.854 39.9003 503.102C44.4149 511.618 44.8829 520.212 40.9469 522.299C38.8416 523.415 35.9016 522.439 32.9309 519.988C29.7429 525.69 24.7309 529.188 19.4923 528.635C11.4683 527.786 5.95094 517.755 7.16961 506.231Z" fill="#FEE0BC"/>
<path d="M250.918 325.125C253.754 324.573 256.819 326.741 259.399 330.631C265.107 325.143 272.151 322.855 278.031 325.346C287.036 329.159 289.895 342.737 284.418 355.67C278.939 368.603 267.198 375.995 258.192 372.181C253.358 370.133 250.296 365.267 249.344 359.201C247.627 356.062 246.211 352.127 245.36 347.754C243.131 336.287 245.618 326.155 250.918 325.125Z" fill="#FEE0BC"/>
<path d="M249.907 363.201L223.416 395.013L166.69 374.393C156.99 367.914 131.562 367.035 130.392 366.99L121.806 367.393H121.09L112.49 366.95C111.311 367.001 85.139 368.121 75.779 374.87C70.8683 377.499 44.1577 392.03 36.271 402.107C26.9857 413.971 20.7257 438.317 17.1083 456.674C13.1923 476.551 11.4457 494.127 11.4283 494.301L11.4097 494.753H11.587L35.083 494.441L35.1017 494.155C35.1643 493.658 41.511 444.202 49.7137 432.594C52.267 428.982 53.9763 426.322 55.1417 424.222C52.4737 436.778 50.1803 451.406 48.3017 467.898C44.1817 504.071 43.4817 537.255 43.475 537.585L43.471 537.953H43.635H121.355H121.536H199.258H199.42L199.418 537.577C199.411 537.249 198.711 504.145 194.59 467.951C192.17 446.691 189.06 428.451 185.35 413.842C185.339 413.801 185.328 413.734 185.318 413.693C192.346 416.437 218.682 426.342 232.111 426.342C234.184 426.342 235.891 426.098 237.182 425.63C251.69 420.369 273.234 375.423 273.45 374.97L273.518 374.826L249.907 363.201Z" fill="#EFEFEE"/>
<path d="M231.676 265.972C232.503 260.493 232.932 254.885 232.932 249.176C232.932 187.523 182.953 137.543 121.299 137.543C59.6467 137.543 9.66534 187.523 9.66534 249.176C9.66534 254.611 10.056 259.955 10.8067 265.181C4.35601 268.707 0 275.372 0 283.019C0 294.343 9.54266 303.521 21.316 303.521C22.12 303.521 22.912 303.475 23.6933 303.392C42.7573 337.639 79.3227 360.808 121.299 360.808C163.232 360.808 199.765 337.687 218.847 303.497C219.173 303.512 219.5 303.521 219.831 303.521C231.603 303.521 241.145 294.343 241.145 283.019C241.145 275.912 237.385 269.651 231.676 265.972Z" fill="#FEE0BC"/>
<path d="M121.151 350.569C158.479 350.569 158.479 313.504 158.479 313.504C158.479 313.504 121.075 325.351 83.8232 313.504C83.8232 313.504 83.8232 350.569 121.151 350.569Z" fill="#EFAD6C"/>
<path d="M121.137 300.709C116.502 300.709 111.064 299.491 105.58 295.555L106.885 293.735C121.592 304.285 136.128 293.849 136.273 293.743L137.6 295.547C137.437 295.667 133.56 298.484 127.676 299.913C125.793 300.371 123.577 300.709 121.137 300.709Z" fill="#EFAD6C"/>
<path d="M78.832 273.847C78.832 280.766 74.6867 286.375 69.572 286.375C64.4573 286.375 60.312 280.766 60.312 273.847C60.312 266.929 64.4573 261.319 69.572 261.319C74.6867 261.319 78.832 266.929 78.832 273.847Z" fill="white"/>
<path d="M178.345 273.847C178.345 280.766 174.2 286.375 169.085 286.375C163.971 286.375 159.825 280.766 159.825 273.847C159.825 266.929 163.971 261.319 169.085 261.319C174.2 261.319 178.345 266.929 178.345 273.847Z" fill="white"/>
<path d="M75.305 277.306C75.305 281.59 72.7384 285.063 69.5717 285.063C66.405 285.063 63.8384 281.59 63.8384 277.306C63.8384 273.022 66.405 269.548 69.5717 269.548C72.7384 269.548 75.305 273.022 75.305 277.306Z" fill="#63B32F"/>
<path d="M174.818 277.306C174.818 281.59 172.252 285.063 169.085 285.063C165.918 285.063 163.352 281.59 163.352 277.306C163.352 273.022 165.918 269.548 169.085 269.548C172.252 269.548 174.818 273.022 174.818 277.306Z" fill="#63B32F"/>
<path d="M54.7324 258.512C63.8378 252.886 77.2418 249.331 77.2418 249.331C78.8311 246.37 77.4124 241.338 75.3044 241.039C68.6244 240.09 54.7324 258.512 54.7324 258.512Z" fill="#F9BA0D"/>
<path d="M183.952 258.512C174.847 252.886 161.443 249.331 161.443 249.331C159.853 246.37 161.272 241.338 163.38 241.039C170.061 240.09 183.952 258.512 183.952 258.512Z" fill="#F9BA0D"/>
<path d="M237.341 234.626C237.265 228.791 236.841 221.693 236.008 214.117C221.012 164.994 175.329 129.259 121.299 129.259C74.2587 129.259 33.5467 156.345 13.9027 195.77C8.47475 211.27 5.1414 226.522 4.86407 233.397C3.90274 257.266 21.3161 293.011 21.3161 293.011C19.2201 253.721 19.6601 253.805 29.1347 246.993C40.9107 238.525 65.7294 222.753 75.3054 211.859C77.1334 209.781 80.9107 202.311 80.9107 202.311C80.9107 202.311 80.5441 208.169 83.8241 210.758C103.575 226.349 161.848 209.013 183.952 221.039C202.039 230.879 223.995 293.011 223.995 293.011C232.932 276.102 237.513 247.738 237.341 234.626Z" fill="#F9BA0D"/>
<path d="M112.576 374.433H130.816C136.03 374.433 140.256 363.233 140.256 358.113H103.136C103.136 363.233 107.363 374.433 112.576 374.433Z" fill="#FEE0BC"/>
<path d="M107.124 370.165L140.124 359.283L140.187 359.215C134.048 360.262 127.737 360.809 121.299 360.809C115.143 360.809 109.103 360.309 103.217 359.35C103.561 362.546 105.025 366.979 107.124 370.165Z" fill="#EFAD6C"/>
<path d="M136.896 537.313H121.216H106.816H60.416L65.7827 608.993H119.789L120.512 572.513H121.92L122.631 608.993H176.605L182.016 537.313H136.896Z" fill="#824A16"/>
<path d="M77.0559 608.993H68.7359L63.2959 537.313H71.6159L77.0559 608.993Z" fill="#AD6B34"/>
<path d="M165.376 608.993H173.696L179.136 537.313H170.816L165.376 608.993Z" fill="#AD6B34"/>
<path d="M71.0146 665.313C62.1999 670.753 55.7986 681.837 63.3452 690.891C69.0519 697.27 77.4452 692.209 83.8225 689.522C90.8732 686.166 98.9305 683.802 105.308 679.438C109.431 676.553 114.272 673.467 117.056 669.174C117.917 667.845 118.325 666.593 118.015 665.313H71.0146Z" fill="#824A16"/>
<path d="M171.428 665.313C180.242 670.753 186.644 681.837 179.097 690.891C173.39 697.27 164.998 692.209 158.62 689.522C151.569 686.166 143.512 683.802 137.133 679.438C133.012 676.553 128.17 673.467 125.386 669.174C124.525 667.845 124.117 666.593 124.428 665.313H171.428Z" fill="#824A16"/>
<path d="M118.042 665.312H70.9758L68.7358 608.993H118.042V665.312Z" fill="#FEE0BC"/>
<path d="M171.456 665.312H124.442V608.993H173.696L171.456 665.312Z" fill="#FEE0BC"/>
<path d="M118.042 665.633H71.2957L69.0557 631.713H118.042V665.633Z" fill="white"/>
<path d="M69.6964 638.433H118.043V631.713H69.207L69.6964 638.433Z" fill="#C6C5C5"/>
<path d="M124.123 665.633H171.296L173.536 631.713H124.123V665.633Z" fill="white"/>
<path d="M172.896 638.433H124.442V631.713H173.385L172.896 638.433Z" fill="#C6C5C5"/>
<path d="M147.482 368.77V437.474H95.0025V368.871C90.5225 369.583 86.0425 370.546 82.5225 371.837V437.474V473.633V537.312H95.0025V473.633H147.482V537.312H159.962V371.59C156.122 370.349 151.642 369.437 147.482 368.77Z" fill="#824A16"/>
<path d="M123.294 455.447C123.294 457.038 122.005 458.326 120.416 458.326C118.825 458.326 117.536 457.038 117.536 455.447C117.536 453.856 118.825 452.568 120.416 452.568C122.005 452.568 123.294 453.856 123.294 455.447Z" fill="#AD6B34"/>
<path d="M121.946 445.169C121.946 448.837 121.235 451.812 120.358 451.812C119.481 451.812 118.77 448.837 118.77 445.169C118.77 441.5 119.481 438.527 120.358 438.527C121.235 438.527 121.946 441.5 121.946 445.169Z" fill="#AD6B34"/>
<path d="M121.946 465.97C121.946 469.639 121.235 472.612 120.358 472.612C119.481 472.612 118.77 469.639 118.77 465.97C118.77 462.302 119.481 459.327 120.358 459.327C121.235 459.327 121.946 462.302 121.946 465.97Z" fill="#AD6B34"/>
<path d="M130.758 457.158C127.09 457.158 124.115 456.447 124.115 455.57C124.115 454.692 127.09 453.98 130.758 453.98C134.426 453.98 137.401 454.692 137.401 455.57C137.401 456.447 134.426 457.158 130.758 457.158Z" fill="#AD6B34"/>
<path d="M109.958 457.158C106.29 457.158 103.315 456.447 103.315 455.57C103.315 454.692 106.29 453.98 109.958 453.98C113.626 453.98 116.601 454.692 116.601 455.57C116.601 456.447 113.626 457.158 109.958 457.158Z" fill="#AD6B34"/>
<path d="M128.835 449.339C126.241 451.933 123.635 453.533 123.015 452.913C122.393 452.292 123.995 449.687 126.588 447.092C129.183 444.499 131.788 442.899 132.409 443.519C133.029 444.139 131.429 446.744 128.835 449.339Z" fill="#AD6B34"/>
<path d="M114.127 464.047C111.533 466.641 108.927 468.241 108.307 467.62C107.686 467 109.287 464.395 111.881 461.8C114.475 459.207 117.081 457.605 117.702 458.227C118.322 458.847 116.722 461.452 114.127 464.047Z" fill="#AD6B34"/>
<path d="M114.127 447.093C116.722 449.687 118.322 452.293 117.702 452.913C117.081 453.534 114.475 451.933 111.881 449.339C109.287 446.745 107.686 444.139 108.307 443.518C108.927 442.898 111.533 444.498 114.127 447.093Z" fill="#AD6B34"/>
<path d="M128.835 461.801C131.429 464.395 133.029 467.001 132.409 467.621C131.788 468.242 129.183 466.641 126.588 464.047C123.995 461.453 122.393 458.847 123.015 458.227C123.635 457.606 126.241 459.206 128.835 461.801Z" fill="#AD6B34"/>
<path d="M119.322 187.737L204.109 159.96C204.109 159.96 146.803 65.2481 119.415 75.8241C92.0275 65.2481 34.4648 159.96 34.4648 159.96L119.322 187.737V187.768V187.752V187.768V187.737Z" fill="#2DA940"/>
<path d="M22.1494 129.263C22.1494 146.942 28.5734 162.643 38.5134 172.542C48.4534 162.643 54.8774 146.942 54.8774 129.263C54.8774 111.583 48.4534 95.8829 38.5134 85.9842C28.5734 95.8829 22.1494 111.583 22.1494 129.263Z" fill="#E83944"/>
<path d="M233.782 161.943C208.339 147.336 119.296 187.768 119.296 187.768C119.296 187.768 30.2683 147.336 4.82563 161.943C-1.7557 165.72 4.88162 175.55 4.88162 175.55L119.296 199.963L233.74 175.55C233.74 175.55 240.363 165.72 233.782 161.943Z" fill="#258F37"/>
</svg>
