<svg width="288" height="619" viewBox="0 0 288 619" fill="none" xmlns="http://www.w3.org/2000/svg">
<path d="M39.2904 173.157H19.4971V165.805H39.2904V173.157Z" fill="#B28E60"/>
<path d="M7.16961 431.231C8.38827 419.707 15.8816 411.052 23.9056 411.9C28.2149 412.356 31.7989 415.462 34.0069 420.023C36.1176 422.088 38.1789 424.854 39.9003 428.102C44.4149 436.618 44.8829 445.212 40.9469 447.299C38.8416 448.415 35.9016 447.439 32.9309 444.988C29.7429 450.69 24.7309 454.188 19.4923 453.635C11.4683 452.786 5.95094 442.755 7.16961 431.231Z" fill="#FEE0BC"/>
<path d="M250.918 250.125C253.754 249.573 256.819 251.741 259.399 255.631C265.107 250.143 272.151 247.855 278.031 250.346C287.036 254.159 289.895 267.737 284.418 280.67C278.939 293.603 267.198 300.995 258.192 297.181C253.358 295.133 250.296 290.267 249.344 284.201C247.627 281.062 246.211 277.127 245.36 272.754C243.131 261.287 245.618 251.155 250.918 250.125Z" fill="#FEE0BC"/>
<path d="M249.907 288.201L223.416 320.013L166.69 299.393C156.99 292.914 131.562 292.035 130.392 291.99L121.806 292.393H121.09L112.49 291.95C111.311 292.001 85.139 293.121 75.779 299.87C70.8683 302.499 44.1577 317.03 36.271 327.107C26.9857 338.971 20.7257 363.317 17.1083 381.674C13.1923 401.551 11.4457 419.127 11.4283 419.301L11.4097 419.753H11.587L35.083 419.441L35.1017 419.155C35.1643 418.658 41.511 369.202 49.7137 357.594C52.267 353.982 53.9763 351.322 55.1417 349.222C52.4737 361.778 50.1803 376.406 48.3017 392.898C44.1817 429.071 43.4817 462.255 43.475 462.585L43.471 462.953H43.635H121.355H121.536H199.258H199.42L199.418 462.577C199.411 462.249 198.711 429.145 194.59 392.951C192.17 371.691 189.06 353.451 185.35 338.842C185.339 338.801 185.328 338.734 185.318 338.693C192.346 341.437 218.682 351.342 232.111 351.342C234.184 351.342 235.891 351.098 237.182 350.63C251.69 345.369 273.234 300.423 273.45 299.97L273.518 299.826L249.907 288.201Z" fill="#EFEFEE"/>
<path d="M231.676 190.972C232.503 185.493 232.932 179.885 232.932 174.176C232.932 112.523 182.953 62.5428 121.299 62.5428C59.6467 62.5428 9.66534 112.523 9.66534 174.176C9.66534 179.611 10.056 184.955 10.8067 190.181C4.35601 193.707 0 200.372 0 208.019C0 219.343 9.54266 228.521 21.316 228.521C22.12 228.521 22.912 228.475 23.6933 228.392C42.7573 262.639 79.3227 285.808 121.299 285.808C163.232 285.808 199.765 262.687 218.847 228.497C219.173 228.512 219.5 228.521 219.831 228.521C231.603 228.521 241.145 219.343 241.145 208.019C241.145 200.912 237.385 194.651 231.676 190.972Z" fill="#FEE0BC"/>
<path d="M121.151 275.569C158.479 275.569 158.479 238.504 158.479 238.504C158.479 238.504 121.075 250.351 83.8232 238.504C83.8232 238.504 83.8232 275.569 121.151 275.569Z" fill="#EFAD6C"/>
<path d="M121.137 225.709C116.502 225.709 111.064 224.491 105.58 220.555L106.885 218.735C121.592 229.285 136.128 218.849 136.273 218.743L137.6 220.547C137.437 220.667 133.56 223.484 127.676 224.913C125.793 225.371 123.577 225.709 121.137 225.709Z" fill="#EFAD6C"/>
<path d="M78.832 198.847C78.832 205.766 74.6867 211.375 69.572 211.375C64.4573 211.375 60.312 205.766 60.312 198.847C60.312 191.929 64.4573 186.319 69.572 186.319C74.6867 186.319 78.832 191.929 78.832 198.847Z" fill="white"/>
<path d="M178.345 198.847C178.345 205.766 174.2 211.375 169.085 211.375C163.971 211.375 159.825 205.766 159.825 198.847C159.825 191.929 163.971 186.319 169.085 186.319C174.2 186.319 178.345 191.929 178.345 198.847Z" fill="white"/>
<path d="M75.305 202.306C75.305 206.59 72.7384 210.063 69.5717 210.063C66.405 210.063 63.8384 206.59 63.8384 202.306C63.8384 198.022 66.405 194.548 69.5717 194.548C72.7384 194.548 75.305 198.022 75.305 202.306Z" fill="#63B32F"/>
<path d="M174.818 202.306C174.818 206.59 172.252 210.063 169.085 210.063C165.918 210.063 163.352 206.59 163.352 202.306C163.352 198.022 165.918 194.548 169.085 194.548C172.252 194.548 174.818 198.022 174.818 202.306Z" fill="#63B32F"/>
<path d="M54.7324 183.512C63.8378 177.886 77.2417 174.331 77.2417 174.331C78.8311 171.37 77.4124 166.338 75.3044 166.039C68.6244 165.09 54.7324 183.512 54.7324 183.512Z" fill="#F9BA0D"/>
<path d="M183.952 183.512C174.847 177.886 161.443 174.331 161.443 174.331C159.853 171.37 161.272 166.338 163.38 166.039C170.061 165.09 183.952 183.512 183.952 183.512Z" fill="#F9BA0D"/>
<path d="M237.341 159.626C237.265 153.791 236.841 146.693 236.008 139.117C221.012 89.9939 175.329 54.2593 121.299 54.2593C74.2587 54.2593 33.5467 81.3446 13.9027 120.77C8.47475 136.27 5.1414 151.522 4.86407 158.397C3.90274 182.266 21.3161 218.011 21.3161 218.011C19.2201 178.721 19.6601 178.805 29.1347 171.993C40.9107 163.525 65.7294 147.753 75.3054 136.859C77.1334 134.781 80.9107 127.311 80.9107 127.311C80.9107 127.311 80.5441 133.169 83.8241 135.758C103.575 151.349 161.848 134.013 183.952 146.039C202.039 155.879 223.995 218.011 223.995 218.011C232.932 201.102 237.513 172.738 237.341 159.626Z" fill="#F9BA0D"/>
<path d="M112.576 299.433H130.816C136.03 299.433 140.256 288.233 140.256 283.113H103.136C103.136 288.233 107.363 299.433 112.576 299.433Z" fill="#FEE0BC"/>
<path d="M107.124 295.165L140.124 284.283L140.187 284.215C134.048 285.262 127.737 285.809 121.299 285.809C115.143 285.809 109.103 285.309 103.217 284.35C103.561 287.546 105.025 291.979 107.124 295.165Z" fill="#EFAD6C"/>
<path d="M136.896 462.313H121.216H106.816H60.416L65.7827 533.993H119.789L120.512 497.513H121.92L122.631 533.993H176.605L182.016 462.313H136.896Z" fill="#824A16"/>
<path d="M77.0559 533.993H68.7359L63.2959 462.313H71.6159L77.0559 533.993Z" fill="#AD6B34"/>
<path d="M165.376 533.993H173.696L179.136 462.313H170.816L165.376 533.993Z" fill="#AD6B34"/>
<path d="M71.0146 590.313C62.1999 595.753 55.7986 606.837 63.3452 615.891C69.0519 622.27 77.4452 617.209 83.8225 614.522C90.8732 611.166 98.9305 608.802 105.308 604.438C109.431 601.553 114.272 598.467 117.056 594.174C117.917 592.845 118.325 591.593 118.015 590.313H71.0146Z" fill="#824A16"/>
<path d="M171.428 590.313C180.242 595.753 186.644 606.837 179.097 615.891C173.39 622.27 164.998 617.209 158.62 614.522C151.569 611.166 143.512 608.802 137.133 604.438C133.012 601.553 128.17 598.467 125.386 594.174C124.525 592.845 124.117 591.593 124.428 590.313H171.428Z" fill="#824A16"/>
<path d="M118.042 590.312H70.9758L68.7358 533.993H118.042V590.312Z" fill="#FEE0BC"/>
<path d="M171.456 590.312H124.442V533.993H173.696L171.456 590.312Z" fill="#FEE0BC"/>
<path d="M118.042 590.633H71.2957L69.0557 556.713H118.042V590.633Z" fill="white"/>
<path d="M69.6964 563.433H118.043V556.713H69.207L69.6964 563.433Z" fill="#C6C5C5"/>
<path d="M124.123 590.633H171.296L173.536 556.713H124.123V590.633Z" fill="white"/>
<path d="M172.896 563.433H124.442V556.713H173.385L172.896 563.433Z" fill="#C6C5C5"/>
<path d="M147.482 293.77V362.474H95.0025V293.871C90.5225 294.583 86.0425 295.546 82.5225 296.837V362.474V398.633V462.312H95.0025V398.633H147.482V462.312H159.962V296.59C156.122 295.349 151.642 294.437 147.482 293.77Z" fill="#824A16"/>
<path d="M123.294 380.447C123.294 382.038 122.005 383.326 120.416 383.326C118.825 383.326 117.536 382.038 117.536 380.447C117.536 378.856 118.825 377.568 120.416 377.568C122.005 377.568 123.294 378.856 123.294 380.447Z" fill="#AD6B34"/>
<path d="M121.946 370.169C121.946 373.837 121.235 376.812 120.358 376.812C119.481 376.812 118.77 373.837 118.77 370.169C118.77 366.5 119.481 363.527 120.358 363.527C121.235 363.527 121.946 366.5 121.946 370.169Z" fill="#AD6B34"/>
<path d="M121.946 390.97C121.946 394.639 121.235 397.612 120.358 397.612C119.481 397.612 118.77 394.639 118.77 390.97C118.77 387.302 119.481 384.327 120.358 384.327C121.235 384.327 121.946 387.302 121.946 390.97Z" fill="#AD6B34"/>
<path d="M130.758 382.158C127.09 382.158 124.115 381.447 124.115 380.57C124.115 379.692 127.09 378.98 130.758 378.98C134.426 378.98 137.401 379.692 137.401 380.57C137.401 381.447 134.426 382.158 130.758 382.158Z" fill="#AD6B34"/>
<path d="M109.958 382.158C106.29 382.158 103.315 381.447 103.315 380.57C103.315 379.692 106.29 378.98 109.958 378.98C113.626 378.98 116.601 379.692 116.601 380.57C116.601 381.447 113.626 382.158 109.958 382.158Z" fill="#AD6B34"/>
<path d="M128.835 374.339C126.241 376.933 123.635 378.533 123.015 377.913C122.393 377.292 123.995 374.687 126.588 372.092C129.183 369.499 131.788 367.899 132.409 368.519C133.029 369.139 131.429 371.744 128.835 374.339Z" fill="#AD6B34"/>
<path d="M114.127 389.047C111.533 391.641 108.927 393.241 108.307 392.62C107.686 392 109.287 389.395 111.881 386.8C114.475 384.207 117.081 382.605 117.702 383.227C118.322 383.847 116.722 386.452 114.127 389.047Z" fill="#AD6B34"/>
<path d="M114.127 372.093C116.722 374.687 118.322 377.293 117.702 377.913C117.081 378.534 114.475 376.933 111.881 374.339C109.287 371.745 107.686 369.139 108.307 368.518C108.927 367.898 111.533 369.498 114.127 372.093Z" fill="#AD6B34"/>
<path d="M128.835 386.801C131.429 389.395 133.029 392.001 132.409 392.621C131.788 393.242 129.183 391.641 126.588 389.047C123.995 386.453 122.393 383.847 123.015 383.227C123.635 382.606 126.241 384.206 128.835 386.801Z" fill="#AD6B34"/>
<path d="M119.322 112.737L204.109 84.9601C204.109 84.9601 146.803 -9.7519 119.415 0.824093C92.0275 -9.7519 34.4648 84.9601 34.4648 84.9601L119.322 112.737V112.768V112.752V112.768V112.737Z" fill="#2DA940"/>
<path d="M22.1494 54.2628C22.1494 71.9415 28.5734 87.6428 38.5134 97.5415C48.4534 87.6428 54.8774 71.9415 54.8774 54.2628C54.8774 36.5829 48.4534 20.8829 38.5134 10.9842C28.5734 20.8829 22.1494 36.5829 22.1494 54.2628Z" fill="#E83944"/>
<path d="M233.782 86.9429C208.339 72.3362 119.296 112.768 119.296 112.768C119.296 112.768 30.2683 72.3362 4.82563 86.9429C-1.7557 90.7202 4.88162 100.55 4.88162 100.55L119.296 124.963L233.74 100.55C233.74 100.55 240.363 90.7202 233.782 86.9429" fill="#258F37"/>
</svg>
