<svg width="331" height="146" viewBox="0 0 331 146" fill="none" xmlns="http://www.w3.org/2000/svg">
<path d="M261.3 92.74C261.3 86.2067 262.28 80.5133 264.24 75.66C266.293 70.7133 268.953 66.6067 272.22 63.34C275.487 60.0733 279.22 57.6 283.42 55.92C287.713 54.24 292.1 53.4 296.58 53.4C307.033 53.4 315.293 56.62 321.36 63.06C327.427 69.4067 330.46 78.7867 330.46 91.2C330.46 92.4133 330.413 93.7667 330.32 95.26C330.227 96.66 330.133 97.92 330.04 99.04H282.72C283.187 103.333 285.193 106.74 288.74 109.26C292.287 111.78 297.047 113.04 303.02 113.04C306.847 113.04 310.58 112.713 314.22 112.06C317.953 111.313 320.987 110.427 323.32 109.4L326.12 126.34C325 126.9 323.507 127.46 321.64 128.02C319.773 128.58 317.673 129.047 315.34 129.42C313.1 129.887 310.673 130.26 308.06 130.54C305.447 130.82 302.833 130.96 300.22 130.96C293.593 130.96 287.807 129.98 282.86 128.02C278.007 126.06 273.947 123.4 270.68 120.04C267.507 116.587 265.127 112.527 263.54 107.86C262.047 103.193 261.3 98.1533 261.3 92.74ZM310.3 84.76C310.207 82.9867 309.88 81.26 309.32 79.58C308.853 77.9 308.06 76.4067 306.94 75.1C305.913 73.7933 304.56 72.72 302.88 71.88C301.293 71.04 299.287 70.62 296.86 70.62C294.527 70.62 292.52 71.04 290.84 71.88C289.16 72.6267 287.76 73.6533 286.64 74.96C285.52 76.2667 284.633 77.8067 283.98 79.58C283.42 81.26 283 82.9867 282.72 84.76H310.3Z" fill="white"/>
<path d="M226.712 96.0397V68.0411H247.458V49.2745H226.712V24L204.147 27.5716V96.3424C204.147 101.488 204.625 106.18 205.586 110.417C206.544 114.655 208.236 118.264 210.659 121.238C213.082 124.216 216.312 126.535 220.351 128.2C224.388 129.865 229.487 130.697 235.647 130.697C240.493 130.697 244.582 130.293 247.913 129.487C251.245 128.68 254.274 127.723 257 126.611L253.82 109.055C251.699 109.864 249.352 110.493 246.778 110.947C244.203 111.401 241.704 111.628 239.281 111.628C234.232 111.628 230.876 110.216 229.21 107.39C227.545 104.567 226.712 100.783 226.712 96.0397Z" fill="white"/>
<path d="M64.505 128.881C68.665 120.111 72.7657 110.983 76.8026 101.498C80.8395 92.0127 84.6729 82.6294 88.3075 73.3454C91.9422 64.0638 95.2881 55.1913 98.3477 46.7279C101.407 38.2668 104.112 30.6902 106.464 24.0004H81.3128C79.3393 30.1061 77.1505 36.6589 74.7463 43.6585C72.3422 50.6605 69.8954 57.6388 67.4014 64.5911C64.9073 71.5459 62.489 78.2073 60.1511 84.5756C57.8132 90.9462 55.6575 96.4325 53.6864 101.034C51.5946 96.4017 49.4058 90.9013 47.1199 84.5307C44.8341 78.16 42.4441 71.4986 39.95 64.5439C37.456 57.5915 35.0045 50.6132 32.6004 43.6112C30.1962 36.6115 28.0121 30.073 26.0481 24.0004H-1.52588e-05C2.22904 30.6571 4.87928 38.2243 7.94599 46.7043C11.0127 55.1842 14.3728 64.0615 18.0311 73.3336C21.687 82.6081 25.5465 91.982 29.6117 101.455C33.6747 110.931 37.7944 120.073 41.9732 128.881H64.505Z" fill="white"/>
<path d="M196.696 24.0001L174.131 27.5716V128.881H196.696V24.0001H196.696Z" fill="white"/>
<path d="M147.351 90.1362C147.351 101.309 138.288 110.366 127.108 110.366C115.928 110.366 106.865 101.309 106.865 90.1362C106.865 78.9637 115.928 69.9066 127.108 69.9066C138.288 69.9066 147.351 78.9637 147.351 90.1362ZM167.825 90.1362C167.825 67.5679 149.518 49.2723 126.935 49.2723C117.625 49.2723 109.042 52.3822 102.169 57.6184C100.255 62.7235 98.2462 67.9651 96.1395 73.3452C93.0984 81.1132 89.9176 88.9509 86.5955 96.8592C89.8038 116.229 106.643 131 126.935 131C149.518 131 167.825 112.704 167.825 90.1362" fill="white"/>
<line x1="160.596" y1="145.315" x2="201.596" y2="1.31541" stroke="white" stroke-width="5"/>
</svg>
